<?xml version="1.0" encoding="UTF-8"?>
<svg id="Layer_1" data-name="Layer 1" xmlns="http://www.w3.org/2000/svg" viewBox="0 0 1834.6 686.22">
  <defs>
    <style>
      .cls-1 {
        fill: #93278f;
        stroke: #93278f;
      }

      .cls-1, .cls-2 {
        stroke-width: 30.08px;
      }

      .cls-1, .cls-2, .cls-3, .cls-4 {
        stroke-miterlimit: 10;
      }

      .cls-2 {
        fill: #fff;
        stroke: #fff;
      }

      .cls-3 {
        stroke-width: 27.36px;
      }

      .cls-3, .cls-4 {
        fill: #1a1a1a;
        stroke: #1a1a1a;
      }

      .cls-4 {
        stroke-width: 13.83px;
      }
    </style>
  </defs>
  <g>
    <path class="cls-4" d="M1022,299.7c-7.91-7.19-16.89-16.53-26.23-26.59-18.68,14.73-42.04,23.36-67.91,23.36-62.16,0-109.59-49.95-109.59-116.06s47.43-115.34,109.59-115.34,109.95,49.59,109.95,115.34c0,32.34-11.14,60.72-30.18,81.21,8.98,10.06,18.32,19.4,26.95,26.95,2.51,2.16,3.6,3.95,3.6,6.83,0,4.31-3.96,8.62-8.62,8.62-1.8,0-4.32-1.44-7.55-4.31ZM983.91,260.18c-10.42-11.86-20.12-24.07-27.67-33.78-1.08-1.44-2.15-2.87-2.15-5.03,0-4.67,4.31-8.62,8.62-8.62,2.87,0,4.67,1.44,6.47,3.59,7.9,10.06,16.89,21.2,26.95,32.34,15.09-17.61,24.07-41.32,24.07-68.27,0-56.05-39.52-98.45-92.34-98.45s-91.98,42.4-91.98,98.45,39.53,99.17,91.98,99.17c21.56,0,40.96-7.19,56.05-19.4Z"/>
    <path class="cls-4" d="M1084.52,213.83V73.69c0-5.39,3.6-8.62,8.62-8.62s8.62,3.23,8.62,8.62v140.13c0,45.99,27.31,65.75,63.24,65.75s62.88-19.76,62.88-65.75V73.69c0-5.39,3.95-8.62,8.62-8.62,5.03,0,8.62,3.23,8.62,8.62v140.13c0,56.77-35.21,82.64-80.13,82.64s-80.49-25.87-80.49-82.64Z"/>
    <path class="cls-4" d="M1298.31,283.53V77.29c0-5.39,2.51-8.62,7.91-8.62h131.14c5.39,0,8.62,3.6,8.62,8.62s-3.23,8.26-8.62,8.26h-121.8v75.82h106.36c5.03,0,8.62,3.95,8.62,8.26,0,5.03-3.23,8.62-8.62,8.62h-106.36v97.73h125.4c5.39,0,8.62,3.59,8.62,8.26,0,5.39-3.23,8.62-8.62,8.62h-133.66c-5.75,0-8.98-4.31-8.98-9.34Z"/>
    <path class="cls-4" d="M1492.7,283.53V77.29c0-5.39,2.51-8.62,7.91-8.62h131.14c5.39,0,8.62,3.6,8.62,8.62s-3.23,8.26-8.62,8.26h-121.8v75.82h106.36c5.03,0,8.62,3.95,8.62,8.26,0,5.03-3.23,8.62-8.62,8.62h-106.36v97.73h125.4c5.39,0,8.62,3.59,8.62,8.26,0,5.39-3.23,8.62-8.62,8.62h-133.66c-5.75,0-8.98-4.31-8.98-9.34Z"/>
    <path class="cls-4" d="M1687.09,287.85V77.29c0-5.39,3.59-8.62,8.62-8.62h30.54c54.98,0,89.47,27.67,89.47,75.81,0,39.53-20.48,62.52-48.87,74.02l46.71,63.6c.72,1.08,2.16,3.59,2.16,6.1,0,4.67-3.96,8.27-8.98,8.27-2.87,0-5.03-1.44-6.83-3.96l-50.3-67.91c-11.86,2.51-24.79,3.95-37.73,3.95h-7.55v59.29c0,5.39-3.59,8.62-8.62,8.62s-8.62-3.23-8.62-8.62ZM1711.88,211.67c44.91,0,86.23-15.8,86.23-67.19,0-39.52-27.31-58.93-71.15-58.93h-22.64v126.12h7.55Z"/>
  </g>
  <g>
    <path class="cls-4" d="M844.95,598.97v-210.56c0-5.39,3.6-8.62,8.62-8.62h29.11c53.89,0,88.75,26.95,88.75,78.33,0,61.8-50.3,83.72-103.84,83.72h-5.39v57.13c0,5.39-3.6,8.62-8.62,8.62s-8.62-3.23-8.62-8.62ZM867.58,524.95c44.91,0,86.23-15.81,86.23-66.83,0-42.04-27.31-61.45-71.14-61.45h-20.48v128.27h5.39Z"/>
    <path class="cls-4" d="M1040.41,524.95v-140.13c0-5.39,3.6-8.62,8.62-8.62s8.62,3.23,8.62,8.62v140.13c0,45.99,27.31,65.75,63.24,65.75s62.88-19.76,62.88-65.75v-140.13c0-5.39,3.95-8.62,8.62-8.62,5.03,0,8.62,3.23,8.62,8.62v140.13c0,56.77-35.21,82.64-80.13,82.64s-80.49-25.87-80.49-82.64Z"/>
    <path class="cls-4" d="M1280.08,594.65v-209.84c0-5.39,3.59-8.62,8.62-8.62s8.62,3.23,8.62,8.62v202.3h102.04c5.03,0,8.62,3.59,8.62,8.26s-3.6,8.62-8.62,8.62h-110.31c-6.11,0-8.98-3.6-8.98-9.34Z"/>
    <path class="cls-4" d="M1460.46,582.44c-1.8-1.44-3.59-3.95-3.59-6.83,0-4.67,4.31-8.98,9.34-8.98,2.87,0,6.11,2.15,6.83,3.23,13.66,14.37,30.54,20.84,57.13,20.84s60.01-12.94,60.01-47.79c0-31.62-30.54-42.4-61.8-51.38-32.34-9.34-67.55-20.48-67.55-58.93,0-34.49,28.74-56.41,69.34-56.41,22.28,0,43.48,6.11,54.98,12.58,3.96,2.15,6.11,5.03,6.11,8.62,0,4.67-3.23,8.62-8.62,8.62-1.8,0-4.31-1.08-5.75-1.8-10.06-5.75-26.23-11.14-46.71-11.14-30.54,0-51.74,15.09-51.74,39.17,0,26.23,25.15,34.13,53.18,42.04,34.85,9.7,76.17,23.72,76.17,68.63s-43.83,64.68-77.61,64.68c-31.62,0-54.25-8.98-69.7-25.15Z"/>
    <path class="cls-4" d="M1676.41,594.65v-206.24c0-5.39,2.51-8.62,7.91-8.62h131.14c5.39,0,8.62,3.6,8.62,8.62s-3.23,8.26-8.62,8.26h-121.8v75.82h106.36c5.03,0,8.62,3.95,8.62,8.26,0,5.03-3.23,8.62-8.62,8.62h-106.36v97.73h125.4c5.39,0,8.62,3.59,8.62,8.26,0,5.39-3.23,8.62-8.62,8.62h-133.66c-5.75,0-8.98-4.31-8.98-9.34Z"/>
  </g>
  <circle class="cls-3" cx="343.11" cy="343.11" r="329.43"/>
  <path class="cls-1" d="M171.85,384.45l133.36-246c2.97-5.48,11.29-3.37,11.29,2.86v141.9c0,3.85,3.57,6.71,7.33,5.86l130.98-29.62c4.88-1.1,8.89,3.89,6.76,8.42l-116.56,247.32c-2.91,6.17-12.23,3.48-11.4-3.29l17.97-147c.5-4.09-3.17-7.46-7.2-6.61l-166.01,34.89c-5.01,1.05-8.96-4.24-6.52-8.74Z"/>
  <path class="cls-2" d="M221.98,419.54l133.36-246c2.97-5.48,11.29-3.37,11.29,2.86v141.9c0,3.85,3.57,6.71,7.33,5.86l130.98-29.62c4.88-1.1,8.89,3.89,6.76,8.42l-116.56,247.32c-2.91,6.17-12.23,3.48-11.4-3.29l17.97-147c.5-4.09-3.17-7.46-7.2-6.61l-166.01,34.89c-5.01,1.05-8.96-4.24-6.52-8.74Z"/>
</svg>