<?xml version="1.0" encoding="UTF-8"?>
<svg id="Layer_1" data-name="Layer 1" xmlns="http://www.w3.org/2000/svg" viewBox="0 0 909.03 909.03">
  <defs>
    <style>
      .cls-1 {
        fill: #93278f;
        stroke: #93278f;
      }

      .cls-1, .cls-2 {
        stroke-width: 39.85px;
      }

      .cls-1, .cls-2, .cls-3 {
        stroke-miterlimit: 10;
      }

      .cls-2 {
        fill: #fff;
        stroke: #fff;
      }

      .cls-3 {
        fill: #1a1a1a;
        stroke: #1a1a1a;
        stroke-width: 36.24px;
      }
    </style>
  </defs>
  <circle class="cls-3" cx="454.51" cy="454.51" r="436.39"/>
  <path class="cls-1" d="M227.65,509.28l176.65-325.88c3.93-7.26,14.95-4.46,14.95,3.79v187.98c0,5.1,4.74,8.89,9.71,7.76l173.51-39.23c6.47-1.46,11.78,5.16,8.95,11.15l-154.41,327.62c-3.85,8.18-16.2,4.62-15.1-4.36l23.8-194.72c.66-5.42-4.2-9.88-9.54-8.75l-219.92,46.22c-6.64,1.39-11.86-5.62-8.63-11.58Z"/>
  <path class="cls-2" d="M294.06,555.77l176.65-325.88c3.93-7.26,14.95-4.46,14.95,3.79v187.98c0,5.1,4.74,8.89,9.71,7.76l173.51-39.23c6.47-1.46,11.78,5.16,8.95,11.15l-154.41,327.62c-3.85,8.18-16.2,4.62-15.1-4.36l23.8-194.72c.66-5.42-4.2-9.88-9.54-8.75l-219.92,46.22c-6.64,1.39-11.86-5.62-8.63-11.58Z"/>
</svg>